# xmcd
#
# Track frame offsets:
#	150
#	22762
#	41755
#	55302
#	70027
#	83932
#	101415
#	120347
#	133842
#
# Disc length: 1990 seconds
#
# Revision: 0
# Processed by: cddbd v1.4PL0 Copyright (c) Steve Scherf et al.
# Submitted via: audiograbber 1.81.03
#
DISCID=6e07c409
DTITLE=Wild Cherry - Wild Cherry
DYEAR=1976
DGENRE=Funk
TTITLE0=Play That Funky Music
TTITLE1=The Lady Wants Your Money
TTITLE2=99½
TTITLE3=Don't Go Near The Water
TTITLE4=Nowhere To Run
TTITLE5=I Feel Sanctified
TTITLE6=Hold On
TTITLE7=Get It Up
TTITLE8=What In The Funk Do You See
EXTD=
EXTT0=
EXTT1=
EXTT2=
EXTT3=
EXTT4=
EXTT5=
EXTT6=
EXTT7=
EXTT8=
PLAYORDER=
